<svg width="341" height="142" viewBox="0 0 341 142" fill="none" xmlns="http://www.w3.org/2000/svg">
<rect x="3.13477" y="57.8809" width="6.204" height="6.1704" rx="3.0852" fill="#D9D9D9"/>
<rect x="3.13477" y="70.386" width="6.204" height="6.1704" rx="3.0852" fill="#D9D9D9"/>
<rect x="3.13477" y="82.8911" width="6.204" height="6.1704" rx="3.0852" fill="#D9D9D9"/>
<rect x="3" y="96.1732" width="6.204" height="6.1704" rx="3.0852" fill="#D9D9D9"/>
<path d="M1.47727 111.955C1.47727 111.139 2.13867 110.477 2.95455 110.477H10.0455C10.8613 110.477 11.5227 111.139 11.5227 111.955V119.045C11.5227 119.861 10.8613 120.523 10.0455 120.523H2.95455C2.13867 120.523 1.47727 119.861 1.47727 119.045V111.955Z" fill="white" stroke="#00C720" stroke-width="2.95455"/>
<path d="M1.47727 40.9545C1.47727 40.1387 2.13867 39.4773 2.95455 39.4773H10.0455C10.8613 39.4773 11.5227 40.1387 11.5227 40.9545V48.0455C11.5227 48.8613 10.8613 49.5227 10.0455 49.5227H2.95455C2.13867 49.5227 1.47727 48.8613 1.47727 48.0455V40.9545Z" fill="white" stroke="#4A4A4A" stroke-width="2.95455"/>
<rect x="24.7696" y="12.7696" width="283.461" height="50.4734" rx="4.23045" fill="white" stroke="#00C720" stroke-width="1.5391"/>
<rect x="35" y="10" width="40" height="8" fill="white"/>
<path d="M47.9315 6.94472L44.6478 16H42.7612L39.4716 6.94472H41.364L43.6573 13.913H43.7517L46.0391 6.94472H47.9315ZM51.9639 16.2004C51.3901 16.2004 50.8713 16.0943 50.4075 15.8821C49.9438 15.6659 49.5763 15.3535 49.3051 14.9447C49.0378 14.536 48.9042 14.0349 48.9042 13.4414C48.9042 12.9305 49.0025 12.5099 49.199 12.1798C49.3955 11.8497 49.6608 11.5883 49.9949 11.3957C50.3289 11.2031 50.7023 11.0577 51.115 10.9595C51.5277 10.8612 51.9482 10.7865 52.3766 10.7354C52.919 10.6726 53.3591 10.6215 53.6971 10.5822C54.0351 10.5389 54.2808 10.4701 54.4341 10.3758C54.5873 10.2815 54.664 10.1282 54.664 9.91598V9.87471C54.664 9.35985 54.5186 8.96093 54.2277 8.67796C53.9408 8.39498 53.5124 8.25349 52.9425 8.25349C52.3491 8.25349 51.8814 8.38515 51.5394 8.64848C51.2014 8.90787 50.9676 9.19675 50.8379 9.5151L49.1813 9.13779C49.3778 8.58756 49.6647 8.14344 50.042 7.80544C50.4233 7.46351 50.8615 7.2159 51.3567 7.06262C51.8519 6.90542 52.3727 6.82681 52.919 6.82681C53.2805 6.82681 53.6637 6.87004 54.0686 6.95651C54.4773 7.03904 54.8585 7.19232 55.2123 7.41635C55.5699 7.64037 55.8627 7.96069 56.0907 8.37729C56.3186 8.78997 56.4326 9.32645 56.4326 9.98673V16H54.7112V14.762H54.6404C54.5264 14.9899 54.3555 15.214 54.1275 15.434C53.8996 15.6541 53.6068 15.8369 53.2491 15.9823C52.8914 16.1277 52.4631 16.2004 51.9639 16.2004ZM52.3471 14.7856C52.8345 14.7856 53.2511 14.6893 53.5969 14.4967C53.9467 14.3041 54.212 14.0526 54.3928 13.7421C54.5775 13.4277 54.6699 13.0916 54.6699 12.734V11.5667C54.607 11.6296 54.4852 11.6885 54.3044 11.7435C54.1275 11.7946 53.9251 11.8398 53.6971 11.8791C53.4692 11.9145 53.2471 11.9479 53.031 11.9794C52.8148 12.0069 52.634 12.0305 52.4886 12.0501C52.1467 12.0933 51.8342 12.166 51.5512 12.2682C51.2722 12.3704 51.0482 12.5178 50.8792 12.7104C50.7141 12.899 50.6316 13.1506 50.6316 13.465C50.6316 13.9012 50.7927 14.2314 51.115 14.4554C51.4373 14.6755 51.848 14.7856 52.3471 14.7856ZM60.5431 10.6234V16H58.7804V6.94472H60.4724V8.41856H60.5844C60.7927 7.93907 61.1189 7.55391 61.563 7.26307C62.0111 6.97223 62.5751 6.82681 63.255 6.82681C63.8721 6.82681 64.4125 6.95651 64.8762 7.2159C65.34 7.47137 65.6996 7.8526 65.9551 8.35961C66.2106 8.86661 66.3383 9.49348 66.3383 10.2402V16H64.5756V10.4525C64.5756 9.79611 64.4046 9.28321 64.0627 8.91377C63.7207 8.5404 63.2511 8.35371 62.6537 8.35371C62.2449 8.35371 61.8814 8.44214 61.563 8.619C61.2486 8.79586 60.9991 9.05526 60.8143 9.39719C60.6335 9.73519 60.5431 10.1439 60.5431 10.6234Z" fill="#4A4A4A"/>
<path d="M24.7696 94.1454C24.7696 91.809 26.6636 89.9149 29 89.9149H304C306.336 89.9149 308.23 91.809 308.23 94.1454V136.145C308.23 138.482 306.336 140.376 304 140.376H29C26.6636 140.376 24.7696 138.482 24.7696 136.145V94.1454Z" fill="white" stroke="#00C720" stroke-width="1.5391"/>
<rect x="36" y="85" width="40" height="8" fill="white"/>
<path d="M41.9477 87.6234V93H40.185V83.9447H41.8769V85.4186H41.989C42.1973 84.9391 42.5235 84.5539 42.9676 84.2631C43.4156 83.9722 43.9796 83.8268 44.6596 83.8268C45.2766 83.8268 45.817 83.9565 46.2808 84.2159C46.7445 84.4714 47.1042 84.8526 47.3596 85.3596C47.6151 85.8666 47.7428 86.4935 47.7428 87.2402V93H45.9801V87.4525C45.9801 86.7961 45.8091 86.2832 45.4672 85.9138C45.1253 85.5404 44.6556 85.3537 44.0582 85.3537C43.6495 85.3537 43.2859 85.4421 42.9676 85.619C42.6532 85.7959 42.4036 86.0553 42.2189 86.3972C42.0381 86.7352 41.9477 87.1439 41.9477 87.6234ZM52.7421 93.2004C52.1683 93.2004 51.6495 93.0943 51.1857 92.8821C50.722 92.6659 50.3545 92.3535 50.0833 91.9447C49.816 91.536 49.6824 91.0349 49.6824 90.4414C49.6824 89.9305 49.7807 89.5099 49.9772 89.1798C50.1737 88.8497 50.439 88.5883 50.773 88.3957C51.1071 88.2031 51.4805 88.0577 51.8932 87.9595C52.3058 87.8612 52.7264 87.7865 53.1548 87.7354C53.6971 87.6726 54.1373 87.6215 54.4753 87.5822C54.8133 87.5389 55.059 87.4701 55.2123 87.3758C55.3655 87.2815 55.4422 87.1282 55.4422 86.916V86.8747C55.4422 86.3599 55.2968 85.9609 55.0059 85.678C54.719 85.395 54.2906 85.2535 53.7207 85.2535C53.1273 85.2535 52.6596 85.3852 52.3176 85.6485C51.9796 85.9079 51.7458 86.1967 51.6161 86.5151L49.9595 86.1378C50.156 85.5876 50.4429 85.1434 50.8202 84.8054C51.2014 84.4635 51.6397 84.2159 52.1349 84.0626C52.6301 83.9054 53.1508 83.8268 53.6971 83.8268C54.0587 83.8268 54.4419 83.87 54.8467 83.9565C55.2555 84.039 55.6367 84.1923 55.9904 84.4163C56.3481 84.6404 56.6409 84.9607 56.8689 85.3773C57.0968 85.79 57.2108 86.3264 57.2108 86.9867V93H55.4893V91.762H55.4186C55.3046 91.9899 55.1337 92.214 54.9057 92.434C54.6777 92.6541 54.3849 92.8369 54.0273 92.9823C53.6696 93.1277 53.2412 93.2004 52.7421 93.2004ZM53.1253 91.7856C53.6126 91.7856 54.0293 91.6893 54.3751 91.4967C54.7249 91.3041 54.9902 91.0526 55.171 90.7421C55.3557 90.4277 55.4481 90.0916 55.4481 89.734V88.5667C55.3852 88.6296 55.2633 88.6885 55.0826 88.7435C54.9057 88.7946 54.7033 88.8398 54.4753 88.8791C54.2474 88.9145 54.0253 88.9479 53.8092 88.9794C53.593 89.0069 53.4122 89.0305 53.2668 89.0501C52.9249 89.0933 52.6124 89.166 52.3294 89.2682C52.0504 89.3704 51.8264 89.5178 51.6574 89.7104C51.4923 89.899 51.4097 90.1506 51.4097 90.465C51.4097 90.9012 51.5709 91.2314 51.8932 91.4554C52.2154 91.6755 52.6262 91.7856 53.1253 91.7856ZM62.1938 93.2004C61.62 93.2004 61.1012 93.0943 60.6375 92.8821C60.1737 92.6659 59.8062 92.3535 59.535 91.9447C59.2678 91.536 59.1341 91.0349 59.1341 90.4414C59.1341 89.9305 59.2324 89.5099 59.4289 89.1798C59.6254 88.8497 59.8907 88.5883 60.2248 88.3957C60.5589 88.2031 60.9322 88.0577 61.3449 87.9595C61.7576 87.8612 62.1781 87.7865 62.6065 87.7354C63.1489 87.6726 63.5891 87.6215 63.9271 87.5822C64.2651 87.5389 64.5107 87.4701 64.664 87.3758C64.8173 87.2815 64.8939 87.1282 64.8939 86.916V86.8747C64.8939 86.3599 64.7485 85.9609 64.4577 85.678C64.1708 85.395 63.7424 85.2535 63.1725 85.2535C62.579 85.2535 62.1113 85.3852 61.7694 85.6485C61.4314 85.9079 61.1975 86.1967 61.0678 86.5151L59.4112 86.1378C59.6077 85.5876 59.8947 85.1434 60.272 84.8054C60.6532 84.4635 61.0914 84.2159 61.5866 84.0626C62.0818 83.9054 62.6026 83.8268 63.1489 83.8268C63.5105 83.8268 63.8937 83.87 64.2985 83.9565C64.7072 84.039 65.0885 84.1923 65.4422 84.4163C65.7998 84.6404 66.0926 84.9607 66.3206 85.3773C66.5486 85.79 66.6625 86.3264 66.6625 86.9867V93H64.9411V91.762H64.8703C64.7564 91.9899 64.5854 92.214 64.3574 92.434C64.1295 92.6541 63.8367 92.8369 63.479 92.9823C63.1214 93.1277 62.693 93.2004 62.1938 93.2004ZM62.577 91.7856C63.0644 91.7856 63.481 91.6893 63.8269 91.4967C64.1767 91.3041 64.4419 91.0526 64.6227 90.7421C64.8075 90.4277 64.8998 90.0916 64.8998 89.734V88.5667C64.8369 88.6296 64.7151 88.6885 64.5343 88.7435C64.3574 88.7946 64.155 88.8398 63.9271 88.8791C63.6991 88.9145 63.4771 88.9479 63.2609 88.9794C63.0447 89.0069 62.8639 89.0305 62.7185 89.0501C62.3766 89.0933 62.0641 89.166 61.7812 89.2682C61.5021 89.3704 61.2781 89.5178 61.1091 89.7104C60.944 89.899 60.8615 90.1506 60.8615 90.465C60.8615 90.9012 61.0226 91.2314 61.3449 91.4554C61.6672 91.6755 62.0779 91.7856 62.577 91.7856ZM69.0104 93V83.9447H70.7141V85.3832H70.8084C70.9735 84.8958 71.2644 84.5126 71.681 84.2336C72.1015 83.9506 72.5771 83.8091 73.1076 83.8091C73.2177 83.8091 73.3474 83.8131 73.4967 83.8209C73.65 83.8288 73.7699 83.8386 73.8564 83.8504V85.5365C73.7856 85.5168 73.6598 85.4952 73.4791 85.4716C73.2983 85.4441 73.1175 85.4303 72.9367 85.4303C72.5201 85.4303 72.1487 85.5188 71.8225 85.6956C71.5002 85.8686 71.2447 86.1103 71.0561 86.4208C70.8674 86.7273 70.7731 87.0771 70.7731 87.4701V93H69.0104Z" fill="#4A4A4A"/>
<path d="M326.51 72.8124H338.34C339.204 72.8124 339.993 72.3631 340.444 71.6516C340.894 70.9027 340.932 70.0041 340.556 69.2178L334.622 57.3854C334.209 56.5242 333.345 56 332.406 56C331.467 56 330.603 56.5242 330.19 57.3854L324.256 69.2178C323.88 70.0041 323.918 70.9027 324.369 71.6516C324.857 72.3631 325.646 72.8124 326.51 72.8124Z" fill="#00C720"/>
<path d="M338.303 77.6153L326.472 77.6153C325.608 77.6153 324.82 78.0647 324.369 78.7761C323.918 79.525 323.881 80.4237 324.256 81.21L330.19 93.0423C330.604 93.9035 331.467 94.4277 332.406 94.4277C333.345 94.4277 334.209 93.9035 334.622 93.0423L340.556 81.21C340.932 80.4237 340.894 79.525 340.444 78.7761C339.955 78.0647 339.167 77.6153 338.303 77.6153Z" fill="#00C720"/>
</svg>
